<?xml version="1.0" encoding="UTF-8" standalone="no"?>
<!-- Created with Inkscape (http://www.inkscape.org/) -->

<svg
   xmlns:dc="http://purl.org/dc/elements/1.1/"
   xmlns:cc="http://creativecommons.org/ns#"
   xmlns:rdf="http://www.w3.org/1999/02/22-rdf-syntax-ns#"
   xmlns:svg="http://www.w3.org/2000/svg"
   xmlns="http://www.w3.org/2000/svg"
   xmlns:sodipodi="http://sodipodi.sourceforge.net/DTD/sodipodi-0.dtd"
   xmlns:inkscape="http://www.inkscape.org/namespaces/inkscape"
   width="297mm"
   height="297mm"
   viewBox="0 0 297 297"
   version="1.1"
   id="svg8"
   inkscape:version="0.92.5 (2060ec1f9f, 2020-04-08)"
   sodipodi:docname="simple.svg">
  <defs
     id="defs2">
    <inkscape:perspective
       sodipodi:type="inkscape:persp3d"
       inkscape:vp_x="0 : 148.5 : 1"
       inkscape:vp_y="0 : 1000 : 0"
       inkscape:vp_z="209.99988 : 148.5 : 1"
       inkscape:persp3d-origin="104.99999 : 99 : 1"
       id="perspective835" />
  </defs>
  <sodipodi:namedview
     id="base"
     pagecolor="#ffffff"
     bordercolor="#666666"
     borderopacity="1.0"
     inkscape:pageopacity="0.0"
     inkscape:pageshadow="2"
     inkscape:zoom="0.98994949"
     inkscape:cx="400.13624"
     inkscape:cy="369.48056"
     inkscape:document-units="mm"
     inkscape:current-layer="layer1"
     showgrid="false"
     inkscape:window-width="2168"
     inkscape:window-height="1329"
     inkscape:window-x="72"
     inkscape:window-y="34"
     inkscape:window-maximized="1" />
  <metadata
     id="metadata5">
    <rdf:RDF>
      <cc:Work
         rdf:about="">
        <dc:format>image/svg+xml</dc:format>
        <dc:type
           rdf:resource="http://purl.org/dc/dcmitype/StillImage" />
        <dc:title></dc:title>
      </cc:Work>
    </rdf:RDF>
  </metadata>
  <g
     inkscape:label="Layer 1"
     inkscape:groupmode="layer"
     id="layer1">
    <path
       style="fill:none;stroke:#000000;stroke-width:0.26458332px;stroke-linecap:butt;stroke-linejoin:miter;stroke-opacity:1"
       d="m 104.23512,61.001008 c 0.53453,67.619192 0.53453,67.619192 0.53453,67.619192 l 40.3577,-43.030397 34.2105,46.504897 9.35443,-75.102736"
       id="path815"
       inkscape:connector-curvature="0"
       inkscape:export-xdpi="96"
       inkscape:export-ydpi="96" />
    <path
       style="fill:none;stroke:#000000;stroke-width:0.26458332px;stroke-linecap:butt;stroke-linejoin:miter;stroke-opacity:1"
       d="m 128.28937,140.38006 28.86511,86.86259 75.63727,-25.12333 z"
       id="path817"
       inkscape:connector-curvature="0"
       inkscape:export-xdpi="96"
       inkscape:export-ydpi="96" />
    <ellipse
       style="fill:none;stroke:#000000;stroke-width:1;stroke-miterlimit:4;stroke-dasharray:none;stroke-opacity:1"
       id="path819"
       cx="228.38182"
       cy="110.9804"
       rx="14.298919"
       ry="21.648832"
       inkscape:export-xdpi="96"
       inkscape:export-ydpi="96" />
    <rect
       style="fill:none;stroke:#000000;stroke-width:1;stroke-miterlimit:4;stroke-dasharray:none;stroke-opacity:1"
       id="rect821"
       width="114.12409"
       height="20.045216"
       x="130.16026"
       y="35.343128"
       inkscape:export-xdpi="96"
       inkscape:export-ydpi="96" />
    <rect
       style="fill:#bc0000;fill-opacity:1;stroke:#000000;stroke-width:1;stroke-miterlimit:4;stroke-dasharray:none;stroke-opacity:1"
       id="rect823"
       width="35.01231"
       height="17.372519"
       x="219.16101"
       y="156.14896"
       inkscape:export-xdpi="96"
       inkscape:export-ydpi="96" />
    <rect
       style="fill:none;fill-opacity:1;stroke:#00dc00;stroke-width:1;stroke-miterlimit:4;stroke-dasharray:none;stroke-opacity:1"
       id="rect825"
       width="19.243404"
       height="71.895508"
       x="244.01709"
       y="191.6958"
       inkscape:export-xdpi="96"
       inkscape:export-ydpi="96" />
    <ellipse
       style="fill:#bc0000;fill-opacity:1;stroke:none;stroke-width:1;stroke-miterlimit:4;stroke-dasharray:none;stroke-opacity:1"
       id="path827"
       cx="267.53677"
       cy="116.05853"
       rx="5.6126599"
       ry="29.132378"
       inkscape:export-xdpi="96"
       inkscape:export-ydpi="96" />
    <path
       sodipodi:type="star"
       style="fill:#bc0000;fill-opacity:1;stroke:none;stroke-width:1;stroke-miterlimit:4;stroke-dasharray:none;stroke-opacity:1"
       id="path829"
       sodipodi:sides="5"
       sodipodi:cx="83.655362"
       sodipodi:cy="157.75256"
       sodipodi:r1="21.25087"
       sodipodi:r2="12.325505"
       sodipodi:arg1="0.87444775"
       sodipodi:arg2="1.5027663"
       inkscape:flatsided="true"
       inkscape:rounded="-3.469447e-18"
       inkscape:randomized="0"
       d="m 97.286111,174.05601 -24.924108,1.6982 -9.317066,-23.17946 19.165845,-16.0239 21.162208,13.27614 z"
       inkscape:transform-center-x="0.44640078"
       inkscape:transform-center-y="-1.600033"
       inkscape:export-xdpi="96"
       inkscape:export-ydpi="96" />
    <path
       sodipodi:type="star"
       style="fill:#bc0000;fill-opacity:1;stroke:none;stroke-width:1;stroke-miterlimit:4;stroke-dasharray:none;stroke-opacity:1"
       id="path833"
       sodipodi:sides="5"
       sodipodi:cx="80.180858"
       sodipodi:cy="92.806079"
       sodipodi:r1="17.954863"
       sodipodi:r2="10.41382"
       sodipodi:arg1="0.77487224"
       sodipodi:arg2="1.4031908"
       inkscape:flatsided="false"
       inkscape:rounded="-3.46945e-18"
       inkscape:randomized="0"
       d="m 93.009791,105.36774 -11.091683,-2.29377 -9.719749,5.81492 -1.246009,-11.257635 -8.533885,-7.447121 10.321607,-4.663825 4.445518,-10.417495 7.625113,8.375231 11.281367,1.008756 -5.609029,9.840002 z"
       inkscape:transform-center-x="0.92558795"
       inkscape:transform-center-y="-0.81022588"
       inkscape:export-xdpi="96"
       inkscape:export-ydpi="96" />
    <path
       style="fill:none;stroke:#000000;stroke-width:0.26458332px;stroke-linecap:butt;stroke-linejoin:miter;stroke-opacity:1"
       d="m 96.484299,220.82819 c 9.087161,46.77216 -19.243406,40.62496 9.354431,46.77216 28.59784,6.14719 -21.381559,-72.96458 16.30344,-50.78121 37.68501,22.18337 89.53529,10.95805 28.0633,42.22859 -61.471987,31.27053 -121.607629,-3.20724 -99.691529,-6.94901 21.916101,-3.74177 49.979399,26.99422 21.916101,-3.74177 -28.063299,-30.736 -59.066565,-21.91611 -28.063299,-30.46873 31.003264,-8.55262 52.117556,2.93997 52.117556,2.93997 z"
       id="path870"
       inkscape:connector-curvature="0" />
    <path
       style="fill:none;stroke:#000000;stroke-width:0.26458332px;stroke-linecap:butt;stroke-linejoin:miter;stroke-opacity:1"
       d="m 79.913589,54.051999 c 1.987982,-1.472478 3.539537,-3.41118 5.34539,-5.078121 0.603544,-0.557118 1.267343,-1.046499 1.870887,-1.603616 1.110953,-1.025496 2.092727,-2.185604 3.207234,-3.207234 0.512922,-0.470181 1.111603,-0.844333 1.603617,-1.33635 1.088572,-1.08857 1.049585,-1.584124 2.138156,-2.672694 0.314981,-0.314981 0.754098,-0.486828 1.069078,-0.801809 0.314981,-0.314981 0.511915,-0.730869 0.801809,-1.069078 1.904645,-1.904645 -0.152057,0.256889 1.336348,-1.603618 0.157413,-0.196766 0.383348,-0.332952 0.534539,-0.534538 0.119526,-0.159369 0.126406,-0.393676 0.267269,-0.53454 0.140864,-0.140862 0.393677,-0.126405 0.534538,-0.267269 0.140864,-0.140864 0.156768,-0.368784 0.267272,-0.534538 0.139774,-0.209664 0.421846,-0.309158 0.534537,-0.53454 0.03984,-0.07969 -0.06299,-0.204274 0,-0.267269 0.063,-0.063 0.187587,0.03984 0.267269,0 0.110586,-0.05529 0.726288,-0.688523 0.801808,-0.801809 0.1105,-0.165754 0.20428,-0.345551 0.26727,-0.534539 0.0503,-0.150793 0,-0.626184 0,-0.801808 0,-0.44545 0,-0.890899 0,-1.336348 0,-0.126017 0.0121,-1.324235 0,-1.336348 -0.063,-0.063 -0.17818,0 -0.26727,0 -0.0891,0 -0.18275,-0.02817 -0.26727,0 -0.18899,0.063 -0.345548,0.204274 -0.534538,0.26727 -0.150791,0.05026 -0.626181,0 -0.801806,0 -0.534541,0 -1.069079,0 -1.603618,0 -0.712719,0 -1.425438,0 -2.138157,0 -0.231611,0 -0.914255,-0.05161 -1.069078,0 -0.188987,0.063 -0.34555,0.204273 -0.534539,0.267269 -0.08452,0.02817 -0.187585,-0.03984 -0.267269,0 -1.223188,0.611594 1.134136,-0.110776 -0.801809,0.53454 -0.08452,0.02817 -0.187585,-0.03984 -0.267269,0 -1.223188,0.611593 1.134136,-0.110777 -0.801809,0.534539 -0.169036,0.05635 -0.408547,-0.125993 -0.534539,0 -0.063,0.063 0.03984,0.187585 0,0.267269 -0.295474,0.590948 -0.165879,0.08294 -0.534539,0.26727 -0.590947,0.295473 -0.08294,0.165878 -0.267269,0.534539 -0.556156,1.112311 0.01845,-0.285721 -0.534539,0.267269 -0.063,0.063 0.063,0.204274 0,0.26727 -0.140864,0.140863 -0.393676,0.126406 -0.534539,0.267269 -0.063,0.063 0,0.17818 0,0.26727 0,0.445449 0,0.890898 0,1.336347 0,0.08909 0,0.178181 0,0.267269 0,0.08909 0.03984,0.187587 0,0.267271 -0.05635,0.112689 -0.210925,0.154578 -0.26727,0.267269 -0.04192,0.08383 -0.02223,1.247412 0,1.336347 0.193786,0.775144 0.208517,0.312777 0.534539,0.801809 0.588839,0.134596 0.141278,0.549825 0.26727,0.801809 0.05635,0.112692 0.197381,0.162439 0.267269,0.267269 0.900129,1.350193 0.0021,0.0062 0.26727,0.801809 0.125992,0.377976 0.408547,0.691103 0.534539,1.069078 0.02817,0.08452 -0.03984,0.187585 0,0.267269 0.05634,0.112692 0.178179,0.178181 0.267269,0.267269 0.08909,0.08909 0.154579,0.210926 0.26727,0.267272 0.07968,0.03984 0.204273,-0.063 0.267269,0 0.063,0.06299 -0.03984,0.187584 0,0.267268 0.02558,0.05116 1.017917,1.043499 1.069078,1.069078 0.07969,0.03984 0.204274,-0.063 0.26727,0 0.063,0.063 -0.03984,0.187585 0,0.267269 0.05529,0.110583 0.688523,0.726284 0.801808,0.80181 0.165754,0.1105 0.341276,0.218953 0.534539,0.267268 0.208517,0.05213 1.291668,0 1.603618,0 1.069078,0 2.138156,0 3.207235,0 0.178178,0 0.356359,0 0.534537,0 0.08909,0 0.187587,-0.03984 0.267269,0 0.112692,0.05635 0.147744,0.227428 0.267272,0.267269 0.01754,0.0058 1.318796,0.0058 1.336346,0 0.11953,-0.03984 0.15458,-0.210923 0.26727,-0.267269 0.0797,-0.03984 0.18759,0.03984 0.26727,0 1.22319,-0.611595 -1.13414,0.110776 0.80181,-0.534537 0.0845,-0.02817 0.18758,0.03984 0.26727,0 0.22538,-0.112692 0.32487,-0.394764 0.53454,-0.534541 0.61453,-0.409688 0.72181,-0.124849 1.33634,-0.534537 0.39329,-0.262189 0.6758,-0.806892 1.06908,-1.069078 0.0741,-0.04942 0.19314,0.04942 0.26727,0 0.20966,-0.139777 0.32488,-0.394764 0.53454,-0.534541 0.0741,-0.04942 0.19314,0.04942 0.26727,0 0.20966,-0.139776 0.35636,-0.356359 0.53454,-0.534537 0.0891,-0.08909 0.15458,-0.210926 0.26727,-0.267272 0.0797,-0.03984 0.20427,0.063 0.26727,0 0.063,-0.063 -0.0398,-0.187584 0,-0.267269 0.27607,-0.552146 0.43463,0.01622 0.80181,-0.53454 0.1105,-0.165754 0.15676,-0.368784 0.26727,-0.534538 0.13977,-0.209664 0.42184,-0.309158 0.53454,-0.53454 0.0398,-0.07968 -0.0398,-0.187585 0,-0.267269 0.081,-0.162044 0.98322,-0.954611 1.06907,-1.069078 0.11953,-0.159369 0.15677,-0.368784 0.26727,-0.534538 0.0699,-0.104833 0.21093,-0.15458 0.26727,-0.267271 0.0398,-0.07968 -0.063,-0.204272 0,-0.267269 0.063,-0.063 0.20428,0.063 0.26727,0 0.063,-0.063 0,-0.178179 0,-0.267269 0,-0.08909 0,-0.178181 0,-0.267269 0,-1.069079 0,-2.138157 0,-3.207235 0,-0.175625 -0.0503,-0.651016 0,-0.801808 0.063,-0.188989 0.20427,-0.345552 0.26727,-0.534539 0.0305,-0.09155 0.0305,-0.977527 0,-1.069079 -0.063,-0.188988 -0.12641,-0.393675 -0.26727,-0.534539 -0.063,-0.063 -0.20427,0.063 -0.26727,0 -0.55299,-0.55299 0.84504,0.02162 -0.26727,-0.534539 -0.14108,-0.07054 -0.68542,0.07759 -0.80181,0 -0.63898,-0.42599 -0.33794,-0.619026 -1.06907,-0.801808 -0.0545,-0.01362 -1.21701,-0.03978 -1.33635,0 -0.18899,0.063 -0.36879,0.156767 -0.53454,0.267269 -0.20966,0.139776 -0.30916,0.421848 -0.53454,0.534539 -0.0797,0.03984 -0.20427,-0.063 -0.26727,0 -0.14086,0.140864 -0.17818,0.356359 -0.26727,0.534539 -0.0891,0.17818 -0.21895,0.341276 -0.26727,0.534539 -0.0432,0.17286 0.0563,0.365503 0,0.534539 -0.0398,0.119527 -0.21092,0.154579 -0.26727,0.26727 -0.0345,0.0691 0,1.414176 0,1.603617 0,0.626795 0.063,-0.125992 -0.26727,0.534539 -0.0114,0.02278 -0.0114,1.046294 0,1.069078 0.0563,0.112691 0.19739,0.162438 0.26727,0.26727 0.58884,0.134595 0.14128,0.549824 0.26727,0.801808 0.11269,0.225382 0.42185,0.309157 0.53454,0.53454 0.0398,0.07968 -0.0398,0.187584 0,0.267269 0.55616,1.112311 -0.0184,-0.285721 0.53454,0.267269 1.04308,1.043083 -0.0619,0.143536 0.26727,0.801809 0.35524,0.710488 0.17929,-0.175951 0.53454,0.534538 0.0398,0.07968 -0.0398,0.187587 0,0.267271 0.0563,0.112689 0.19738,0.162439 0.26727,0.267269 0.1105,0.165754 0.15677,0.368784 0.26727,0.534538 0.0699,0.104833 0.21092,0.15458 0.26727,0.267271 0.0398,0.07968 -0.0398,0.187585 0,0.267269 0.61159,1.223187 -0.11078,-1.134136 0.53454,0.801809 0.0282,0.08452 -0.0282,0.182751 0,0.267269 0.0442,0.132522 0.49036,0.936556 0.53454,1.069078 0.0563,0.169037 -0.0988,0.386284 0,0.534541 0.13977,0.209661 0.39476,0.324874 0.53453,0.534537 0.0798,0.11973 -0.0658,1.138804 0,1.336347 0.0797,0.239054 0.42185,0.309158 0.53454,0.534541 0.0797,0.159369 -0.0797,0.375168 0,0.534537 0.0563,0.112692 0.21093,0.15458 0.26727,0.267272 0.0398,0.07968 0,0.178178 0,0.267269 0,0.178178 -0.0432,0.36168 0,0.534537 0.0483,0.193265 0.20428,0.345551 0.26727,0.534541 0.0282,0.08452 -0.0398,0.187584 0,0.267268 0.0564,0.112692 0.21093,0.154581 0.26727,0.267269 0.0783,0.156589 -0.0492,1.139399 0,1.33635 0.0966,0.386524 0.40855,0.691102 0.53454,1.069078 0.0561,0.168219 0,1.095438 0,1.336347 0,0.08909 -0.0282,0.18275 0,0.267269 0.063,0.188989 0.20427,0.345551 0.26727,0.53454 0.0561,0.168219 0,1.095439 0,1.336347 0,0.08909 0,0.178178 0,0.267269 0,0.08909 0.063,0.204274 0,0.267269 -0.063,0.063 -0.17818,0 -0.26727,0 -0.20892,0 -1.72479,-0.0487 -1.87089,0 -0.18898,0.063 -0.34555,0.204274 -0.53453,0.267271 -0.14465,0.04822 -0.97803,0 -1.06908,0 -0.44545,0 -0.8909,0 -1.33635,0 -0.17562,0 -0.65102,0.05026 -0.80181,0 -0.18899,-0.063 -0.34555,-0.204274 -0.53454,-0.267271 -0.15936,-0.05312 -1.34467,0 -1.60361,0 -0.17819,0 -0.35636,0 -0.53454,0 -0.0891,0 -0.18759,0.03984 -0.26727,0 -0.1127,-0.05634 -0.15458,-0.210924 -0.26727,-0.267269 -0.0797,-0.03984 -0.17818,0 -0.26727,0 -0.0891,0 -0.17818,0 -0.26727,0 -0.62363,0 -1.24726,0 -1.87089,0 -1.158166,0 -2.316334,0 -3.474502,0 -0.262556,0 -1.426846,-0.05892 -1.603617,0 -0.188988,0.063 -0.341276,0.218953 -0.53454,0.267269 -0.345719,0.08643 -0.731005,-0.112689 -1.069078,0 -0.119526,0.03984 -0.162437,0.197381 -0.267269,0.267271 -0.165753,0.110501 -0.368785,0.156766 -0.534539,0.267269 -0.104832,0.06989 -0.147743,0.227428 -0.26727,0.267269 -0.169036,0.05635 -0.365502,-0.05635 -0.534539,0 -0.239053,0.07968 -0.295485,0.454856 -0.534539,0.53454 -0.169036,0.05635 -0.365503,-0.05635 -0.534539,0 -0.119526,0.03984 -0.154579,0.210923 -0.267269,0.267269 -0.07969,0.03984 -0.187585,-0.03984 -0.26727,0 -0.07096,0.03548 -0.766327,0.730845 -0.801808,0.801809 -0.03984,0.07968 0.063,0.204272 0,0.267269 -0.063,0.063 -0.187585,-0.03984 -0.26727,0 -0.225381,0.112691 -0.324876,0.394764 -0.534539,0.53454 -0.165754,0.110501 -0.393676,0.126405 -0.534539,0.267269 -0.063,0.063 0.03984,0.187585 0,0.267269 -0.556156,1.112311 0.01845,-0.285721 -0.534539,0.267269 -0.063,0.063 0.03984,0.187587 0,0.267271 -0.295474,0.590947 -0.165879,0.08294 -0.534539,0.267269 -0.590948,0.295474 -0.08294,0.165878 -0.267269,0.534538 -0.556157,1.112314 0.01845,-0.285721 -0.53454,0.267272 -0.063,0.06299 0.03984,0.187584 0,0.267268 -0.295473,0.590947 -0.165879,0.08294 -0.534539,0.267269 -0.11269,0.05635 -0.178179,0.178181 -0.267269,0.267269 -0.208761,0.208762 -0.571182,0.648057 -0.801809,0.801809 -0.331507,0.221004 -0.737571,0.313534 -1.069078,0.534541 -0.209663,0.139774 -0.324875,0.394763 -0.534539,0.534537 -0.165753,0.110504 -0.356359,0.178181 -0.534539,0.267269 -0.17818,0.08909 -0.341276,0.218956 -0.534539,0.267272 -0.17286,0.04321 -0.361679,-0.04322 -0.534539,0 -0.193263,0.04832 -0.356359,0.178178 -0.534539,0.267269 -0.17818,0.08909 -0.368786,0.156765 -0.534539,0.267268 -0.104832,0.06989 -0.147743,0.227428 -0.26727,0.267269 -0.169036,0.05635 -0.365503,-0.05634 -0.534539,0 -0.119526,0.03984 -0.162438,0.197382 -0.267269,0.267272 -0.165754,0.1105 -0.345551,0.204271 -0.534539,0.267269 -0.08452,0.02817 -0.204274,-0.063 -0.26727,0 -0.227135,0.227134 -0.307404,0.574672 -0.534539,0.801809 -0.227135,0.227134 -0.534539,0.356359 -0.801809,0.534537 -0.534539,0.35636 -1.069078,0.712719 -1.603617,1.069079 -0.267269,0.178181 -0.550979,0.333875 -0.801808,0.53454 -0.828644,0.662913 -0.239506,0.520655 -1.336348,1.069078 -0.07968,0.03984 -0.182751,-0.02817 -0.267269,0 -0.188988,0.063 -0.35636,0.178178 -0.534539,0.267269 -0.17818,0.08909 -0.35636,0.178178 -0.53454,0.267269 -0.178179,0.08909 -0.341276,0.218953 -0.534539,0.267268 -0.172859,0.04322 -0.356359,0 -0.534539,0 -0.279788,0 -1.386273,-0.05433 -1.603617,0 -0.193263,0.04832 -0.345551,0.204275 -0.534539,0.267272 -0.08452,0.02817 -0.178179,0 -0.267269,0 -1.3544,0 0.318737,0.07969 -1.069078,-0.267272 -0.17286,-0.04321 -0.365503,0.05635 -0.53454,0 -0.119526,-0.03984 -0.162437,-0.197379 -0.267269,-0.267268 -0.562059,-0.374706 -1.220545,-0.430626 -1.603617,-1.069078 -0.144947,-0.241578 -0.122322,-0.560229 -0.26727,-0.80181 -0.129644,-0.216074 -0.377126,-0.337772 -0.534539,-0.534537 -0.78809,-0.985113 -0.30217,-0.503619 -0.801808,-1.336347 -0.165266,-0.275442 -0.390886,-0.514504 -0.534539,-0.801809 -0.125992,-0.251984 -0.141278,-0.549826 -0.26727,-0.80181 -0.143653,-0.287305 -0.390886,-0.5145 -0.534539,-0.801809 -0.269508,-0.539014 -0.184239,-0.86928 -0.534539,-1.336347 -0.15119,-0.201586 -0.383348,-0.332951 -0.534539,-0.534537 -0.119527,-0.15937 -0.147743,-0.375172 -0.267269,-0.534541 -0.151191,-0.201586 -0.404895,-0.318463 -0.534539,-0.534537 -0.144948,-0.241581 -0.122323,-0.560232 -0.26727,-0.80181 -0.129645,-0.216074 -0.383348,-0.332951 -0.534539,-0.53454 -0.0789,-0.105198 -0.772565,-1.486641 -0.801809,-1.603616 -0.04322,-0.17286 0.04322,-0.36168 0,-0.53454 0.161091,-0.48374 -0.432961,-0.497073 -0.534539,-0.801809 -0.05635,-0.169035 0,-0.35636 0,-0.534538 0,-0.623628 0,-1.247259 0,-1.870887 0,-0.178179 0,-0.35636 0,-0.534538 0,-0.08909 0.02817,-0.182753 0,-0.267271 -0.063,-0.188987 -0.204273,-0.345549 -0.267269,-0.534538 -0.02817,-0.08452 0.02817,-0.182751 0,-0.267269 -0.063,-0.188989 -0.204274,-0.345551 -0.26727,-0.53454 -0.04822,-0.144648 0,-0.978027 0,-1.069078 0,-0.712719 0,-1.425438 0,-2.138157 0,-0.09815 -0.01075,-1.058322 0,-1.069078 0.063,-0.06299 0.17818,0 0.26727,0 0.0503,0 1.320985,0.01024 1.336347,0 0.165754,-0.110503 0.126407,-0.393676 0.26727,-0.534537 0.063,-0.063 0.17818,0 0.26727,0 0.712718,0 1.425437,0 2.138156,0 2.138156,0 4.276312,0 6.414468,0 0.712719,0 1.425438,0 2.138156,0 0.26727,0 0.534539,0 0.801809,0 0.08909,0 0.182751,0.02817 0.267269,0 0.377977,-0.125992 0.712719,-0.35636 1.069079,-0.534541 0.178179,-0.08909 0.341276,-0.218953 0.534539,-0.267268 0.172859,-0.04321 0.365503,0.05635 0.534539,0 0.119526,-0.03984 0.162437,-0.197382 0.267269,-0.267269 0.165754,-0.110504 0.345551,-0.204275 0.534539,-0.267272 0.795617,-0.265205 -0.548385,0.63286 0.801809,-0.267269 0.209663,-0.139776 0.295486,-0.454855 0.534539,-0.534537 0.169036,-0.05635 0.365503,0.05634 0.534539,0 0.119526,-0.03984 0.162438,-0.197382 0.267269,-0.267272 0.165754,-0.1105 0.345551,-0.204271 0.534539,-0.267269 0.795617,-0.265205 -0.548385,0.63286 0.801809,-0.267269 0.230627,-0.153752 0.593048,-0.593047 0.801809,-0.801809 0.08909,-0.08909 0.154578,-0.210923 0.267269,-0.267269 0.07968,-0.03984 0.204274,0.063 0.26727,0 0.01211,-0.01212 0,-1.210331 0,-1.336349 0,-0.08909 -0.02817,-0.182751 0,-0.267269 0.307112,-0.921335 0.267269,-0.197982 0.267269,-0.801809 0,-0.08909 0.03984,-0.187585 0,-0.267269 -0.05635,-0.112691 -0.210924,-0.154578 -0.267269,-0.267269 -0.03984,-0.07968 0.063,-0.204274 0,-0.267269 -0.55299,-0.55299 0.02162,0.845042 -0.534539,-0.267271 -0.18433,-0.36866 0.323678,-0.239065 -0.26727,-0.534538 -0.07968,-0.03984 -0.187585,0.03984 -0.267269,0 -1.112312,-0.556157 0.28572,0.01844 -0.26727,-0.53454 -0.55299,-0.55299 0.02162,0.845042 -0.534539,-0.267269 -0.18433,-0.36866 0.323678,-0.239064 -0.26727,-0.534538 -0.07968,-0.03984 -0.187585,0.03984 -0.267269,0 -0.608344,-0.608343 0.05535,-0.07064 -0.534539,-0.267271 -1.935945,-0.645314 0.421379,0.07705 -0.801809,-0.534538 -0.07968,-0.03984 -0.178179,0 -0.267269,0 -0.17818,0 -0.35636,0 -0.534539,0 -0.08909,0 -0.182752,-0.02817 -0.26727,0 -0.188988,0.063 -0.341276,0.218953 -0.534539,0.267269 -0.172859,0.04321 -0.365503,-0.05635 -0.534539,0 -0.119526,0.03984 -0.17818,0.178181 -0.267269,0.267269 -0.17818,0.178181 -0.35636,0.356359 -0.534539,0.53454 -0.208761,0.208762 -0.648058,0.571182 -0.801809,0.801809 -0.110502,0.165754 -0.156767,0.368784 -0.26727,0.534538 -0.06989,0.104833 -0.210924,0.15458 -0.267269,0.267269 -0.03984,0.07968 0,0.178181 0,0.267271 -0.08909,0.178179 -0.156767,0.368784 -0.26727,0.534538 -0.06989,0.104833 -0.227427,0.147743 -0.267269,0.267269 -0.05634,0.169037 0.04322,0.36168 0,0.53454 -0.04832,0.193262 -0.204274,0.345551 -0.26727,0.534538 -0.09467,0.284006 0.09467,0.785077 0,1.069081 -0.063,0.188986 -0.204273,0.345548 -0.267269,0.534537 -0.04822,0.144648 0,0.978027 0,1.069078 0,0.801809 0,1.603619 0,2.405425 0,0.08909 0,0.178181 0,0.267272 0,0.08909 0.063,0.204271 0,0.267269 -0.063,0.06299 -0.204274,-0.063 -0.26727,0 -0.063,0.06299 0,0.178178 0,0.267268 0,0.120367 -0.04067,0.720469 0,0.80181 0.05634,0.112691 0.210924,0.154577 0.26727,0.267268 0.18433,0.36866 -0.323678,0.239065 0.267269,0.534541 0.07968,0.03984 0.204274,-0.063 0.26727,0 0.063,0.06299 -0.03984,0.187584 0,0.267269 0.05635,0.112691 0.210924,0.154577 0.267269,0.267269 0.03984,0.07968 -0.02817,0.182753 0,0.267268 0.063,0.18899 0.204274,0.345551 0.26727,0.534541 0.05634,0.169037 0,0.356359 0,0.534537 0,0.623631 0,1.247259 0,1.870888 0,0.06482 0.0086,0.793213 0,0.801809 -0.063,0.063 -0.187585,-0.03984 -0.26727,0 -0.225381,0.112691 -0.309157,0.421849 -0.534539,0.534538 -0.400904,0.200453 -0.267269,-0.400902 -0.801808,0 -0.256975,0.192733 -0.277565,0.609078 -0.534539,0.801809 -0.142544,0.106907 -0.365503,-0.05635 -0.534539,0 -0.119527,0.03984 -0.17818,0.178181 -0.26727,0.267269 -0.178179,0.08909 -0.339196,0.228203 -0.534539,0.267271 -0.262079,0.05241 -0.539729,-0.05242 -0.801809,0 -0.396018,0.0792 -1.185134,0.697188 -1.603617,0.801807 -0.172859,0.04322 -0.361679,-0.04322 -0.534539,0 -0.193263,0.04832 -0.356359,0.178181 -0.534539,0.267271 -0.267269,0.08909 -0.525552,0.212019 -0.801808,0.267269 -0.17472,0.03494 -0.36168,-0.04321 -0.534539,0 -0.518871,0.129717 -0.857318,0.610195 -1.336348,0.801809 -0.146178,0.05847 -1.377113,0 -1.603617,0 -1.336348,0 -2.672695,0 -4.009043,0 -2.138156,0 -4.276312,0 -6.414468,0 -0.623629,0 -1.247258,0 -1.870887,0 -0.17818,0 -0.356359,0 -0.534539,0 -0.08909,0 -0.18084,0.02162 -0.26727,0 -0.273315,-0.06833 -0.534539,-0.178181 -0.801808,-0.267269 -0.26727,-0.08909 -0.540232,-0.162639 -0.801809,-0.267271 -0.184963,-0.07399 -0.341276,-0.218953 -0.534538,-0.267269 -0.345721,-0.08643 -0.719641,0.06989 -1.069078,0 -0.536716,0.06133 -0.870911,-0.418179 -1.336347,-0.53454 -0.172861,-0.04322 -0.36168,0.04322 -0.534541,0 -0.530767,-0.132692 -1.072851,-0.669116 -1.603618,-0.801807 -0.172858,-0.04321 -0.361678,0.04322 -0.534538,0 -0.483743,0.161089 -0.497075,-0.432961 -0.801809,-0.53454 -0.169034,-0.05635 -0.365503,0.05635 -0.534538,0 -0.119528,-0.03984 -0.162438,-0.197382 -0.267271,-0.267269 -0.165754,-0.110503 -0.368784,-0.156768 -0.534538,-0.267269 -0.104833,-0.06989 -0.15458,-0.210926 -0.267269,-0.267271 -0.07968,-0.03984 -0.187587,0.03984 -0.267271,0 -0.22538,-0.112689 -0.309158,-0.421847 -0.534538,-0.534538 -0.07968,-0.03984 -0.193143,0.04942 -0.267269,0 -0.693613,-0.462407 -0.407453,-0.477547 -0.801809,-1.069078 -0.06989,-0.104833 -0.210923,-0.15458 -0.267269,-0.267269 -0.125992,-0.251984 -0.162639,-0.540232 -0.267271,-0.801809 -0.01476,-0.03695 -0.532017,-1.056474 -0.534538,-1.069078 -0.05242,-0.262081 0.05242,-0.539729 0,-0.801809 -0.03907,-0.195342 -0.193286,-0.349576 -0.267269,-0.534538 -0.104632,-0.261578 -0.162639,-0.540232 -0.267271,-0.801809 -0.07399,-0.184963 -0.218954,-0.341276 -0.267269,-0.534541 -0.04321,-0.172857 0.04321,-0.361677 0,-0.534537 -0.04832,-0.193263 -0.218954,-0.341276 -0.267269,-0.534541 -0.05256,-0.210238 0,-1.325676 0,-1.603616 0,-1.069078 0,-2.138156 0,-3.207234 0,-0.623631 0,-1.247259 0,-1.870887 0,-0.178181 0,-0.356359 0,-0.53454 0,-0.08909 0.03984,-0.187585 0,-0.267269 -0.05635,-0.112691 -0.210926,-0.154578 -0.267269,-0.267269 -0.03984,-0.07969 0,-0.178181 0,-0.267269 0,-0.08909 -0.063,-0.204274 0,-0.267271 0.063,-0.063 0.193141,0.04942 0.267269,0 0.209664,-0.139774 0.324874,-0.394761 0.534538,-0.534538 0.07413,-0.04942 0.178181,0 0.267271,0 0.08909,0 0.178178,0 0.267269,0 0.765649,0 0.627544,-0.08713 1.336347,0.267269 0.178181,0.08909 0.393676,0.126407 0.53454,0.267269 1.365848,1.36585 -1.120656,-0.372769 0.801807,1.069078 1.340715,1.005535 -0.312201,-0.787604 0.801809,1.069078 0.129646,0.216074 0.383349,0.332954 0.53454,0.53454 0.119526,0.159369 0.147744,0.375171 0.267269,0.534538 0.151191,0.201589 0.404895,0.318466 0.534538,0.53454 0.144949,0.241578 0.162639,0.540232 0.267271,0.801809 0.07399,0.184963 0.164775,0.363718 0.267269,0.534538 0.165264,0.275442 0.390885,0.514504 0.534538,0.801809 0.125995,0.251984 0.178181,0.534541 0.267271,0.801809 0.08909,0.267269 0.178179,0.534538 0.267269,0.80181 0.08909,0.267269 0.212019,0.525552 0.267269,0.801806 0.03494,0.17472 -0.03494,0.35982 0,0.534541 0.05525,0.276256 0.178181,0.534537 0.267269,0.801809 0.08909,0.267269 0.178181,0.534537 0.267271,0.801806 0.08909,0.267272 0.220954,0.523915 0.267269,0.80181 0.04394,0.263633 -0.05242,0.539728 0,0.801809 0.07814,0.390683 0.437907,0.682551 0.534541,1.069078 0.04321,0.17286 0,0.356359 0,0.534537 0,0.178181 0,0.35636 0,0.534541 0,0.890897 0,1.781797 0,2.672694 0,5.078121 0,10.156242 0,15.234364 0,0.712719 0,1.425437 0,2.138156 0,0.08909 0.06299,0.204274 0,0.267269 -0.063,0.063 -0.178181,0 -0.267272,0 -0.08909,0 -0.178178,0 -0.267269,0 -0.120909,0 -1.53239,-0.03561 -1.603618,0 -0.287306,0.143653 -0.503563,0.415242 -0.801807,0.53454 -0.08268,0.03307 -1.533509,0.02336 -1.603618,0 -0.557718,-0.185907 -0.778629,-0.615902 -1.336347,-0.801809 -0.169037,-0.05635 -0.356359,0 -0.53454,0 -0.445447,0 -0.890897,0 -1.336347,0 -0.44545,0 -0.890897,0 -1.336347,0 -0.175625,0 -0.651015,-0.05027 -0.801809,0 -0.377976,0.125992 -0.691103,0.408546 -1.069078,0.53454 -0.08452,0.02817 -0.204275,-0.063 -0.267269,0 -0.063,0.063 0.06299,0.204272 0,0.267269 -0.281728,0.281726 -0.848074,0.203031 -1.069078,0.534538 -0.09884,0.148254 0.05635,0.365503 0,0.53454 -0.03984,0.119526 -0.197382,0.162438 -0.267269,0.267269 -0.110503,0.165754 -0.156768,0.368787 -0.267272,0.53454 -0.06989,0.104831 -0.227425,0.147741 -0.267268,0.267269 -0.05635,0.169035 0.05635,0.365504 0,0.534538 -0.07968,0.239054 -0.454856,0.295487 -0.534538,0.53454 -0.05635,0.169035 0.04321,0.36168 0,0.534538 -0.02622,0.104852 -0.508328,0.964229 -0.53454,1.069078 -0.04322,0.17286 0.04321,0.36168 0,0.53454 -0.307113,1.228448 -0.267269,0.06064 -0.267269,0.80181 0,1.336346 0,2.672693 0,4.00904 0,0.8909 0,1.781797 0,2.672697 0,0.262556 -0.05893,1.426845 0,1.603618 0.161806,0.485421 0.22874,0.496012 0.534537,0.801807 0.08909,0.08909 0.227428,0.147743 0.267272,0.267271 0.05634,0.169034 -0.05635,0.365501 0,0.534538 0.03984,0.119525 0.197379,0.162438 0.267269,0.267269 0.03319,0.04979 0.517411,1.051951 0.534537,1.069078 0.140865,0.140864 0.393677,0.126407 0.534541,0.267271 0.140864,0.140862 0.156765,0.368784 0.267269,0.534538 0.06989,0.104833 0.178181,0.178181 0.267268,0.267269 0.178181,0.178181 0.35636,0.356359 0.534541,0.53454 0.08909,0.08909 0.162438,0.197382 0.267269,0.267269 0.165753,0.110503 0.393676,0.126407 0.53454,0.267269 0.140862,0.140864 0.126405,0.393676 0.267269,0.53454 0.140864,0.140864 0.393676,0.126405 0.534538,0.267269 0.140864,0.140864 0.126407,0.393676 0.267271,0.53454 0.063,0.063 0.187584,-0.03984 0.267269,0 0.320723,0.160362 0.481084,0.641446 0.801809,0.801807 0.07028,0.03514 0.929317,0 1.069078,0 0.185896,0 1.239692,0.04833 1.336347,0 0.22538,-0.112689 0.309158,-0.421846 0.534538,-0.534538 0.368662,-0.18433 0.239067,0.323678 0.53454,-0.267269 0.03984,-0.07968 -0.063,-0.204274 0,-0.267271 0.063,-0.063 0.187584,0.03984 0.267269,0 0.112691,-0.05635 0.15458,-0.210923 0.267269,-0.267269 0.159369,-0.07968 0.408548,0.125992 0.53454,0 0.063,-0.063 -0.063,-0.204274 0,-0.267269 0.063,-0.063 0.204274,0.063 0.267269,0 0.125992,-0.125992 -0.125992,-0.408548 0,-0.53454 0.063,-0.063 0.204274,0.063 0.267269,0 0.063,-0.063 -0.03984,-0.187584 0,-0.267269 0.143655,-0.287306 0.390887,-0.514503 0.53454,-0.801809 0.04833,-0.09665 0,-1.150451 0,-1.336347 0,-0.08909 0,-0.178178 0,-0.267269 0,-0.08909 0.063,-0.204274 0,-0.267269 -0.063,-0.063 -0.178181,0 -0.267269,0 -0.267271,0 -0.53454,0 -0.801809,0 -0.712719,0 -1.425437,0 -2.138156,0 -0.178181,0 -0.356359,0 -0.53454,0 -0.178179,0 -0.361678,0.04322 -0.534538,0 -1.29063,-0.322659 0.01326,-0.127013 -0.801809,-0.53454 -0.08126,-0.04063 -0.884523,0 -1.069078,0 -0.178179,0 -0.35636,0 -0.534538,0 -0.08909,0 -0.182753,-0.02817 -0.267271,0 -0.188987,0.063 -0.341276,0.218953 -0.534538,0.267269 -0.17286,0.04322 -0.365503,-0.05635 -0.53454,0 -0.119526,0.03984 -0.147744,0.227428 -0.267269,0.267271 -0.169037,0.05634 -0.365504,-0.05634 -0.534538,0 -0.119528,0.03984 -0.162438,0.197382 -0.267272,0.267269 -0.134593,0.588838 -0.549822,0.141277 -0.801806,0.267269 -0.112691,0.05635 -0.147743,0.227428 -0.267272,0.267269 -0.169034,0.05635 -0.359817,-0.03494 -0.534537,0 -1.390391,0.278079 -0.267269,0.178181 -1.336347,0.53454 -0.08452,0.02817 -0.182753,-0.02817 -0.267272,0 -1.935943,0.645314 0.421381,-0.07706 -0.801809,0.534538 -0.07968,0.03984 -0.180837,-0.02162 -0.267269,0 -0.546629,0.136657 -1.051105,0.424037 -1.603615,0.53454 -0.251172,0.05023 -1.122612,-0.07125 -1.33635,0 -0.178178,0.08909 -0.356359,0.178178 -0.534538,0.267269 -0.08909,0 -0.18275,-0.02817 -0.267269,0 -0.188989,0.063 -0.345551,0.204274 -0.53454,0.267269 -0.160345,0.05345 -1.123077,0 -1.336347,0 -0.890899,0 -1.781797,0 -2.672696,0 -0.534538,0 -1.069078,0 -1.603616,0 -0.178181,0 -0.35982,0.03495 -0.53454,0 -0.536716,0.06133 -0.870908,-0.418179 -1.336347,-0.534538 -0.17286,-0.04321 -0.36168,0.04322 -0.534538,0 -0.386527,-0.09663 -0.699153,-0.386569 -1.069078,-0.53454 -0.261578,-0.10463 -0.528495,-0.19894 -0.801809,-0.267269 -0.08643,-0.02162 -0.187587,0.03984 -0.267272,0 -0.112688,-0.05635 -0.162435,-0.197382 -0.267269,-0.267269 -1.350192,-0.900128 -0.0062,-0.0021 -0.801809,-0.267269 -0.968928,-0.322977 -0.190214,-0.126812 -0.801806,-0.53454 -0.165754,-0.110503 -0.375172,-0.147743 -0.534541,-0.267269 -0.2015861,-0.151191 -0.3563591,-0.356359 -0.5345371,-0.53454 -0.178181,-0.178179 -0.38335,-0.332952 -0.534541,-0.534538 -0.119525,-0.159369 -0.147743,-0.375171 -0.267269,-0.53454 -0.15119,-0.201586 -0.383349,-0.332952 -0.53454,-0.534538 -0.119525,-0.159369 -0.147741,-0.375171 -0.267269,-0.53454 -0.151191,-0.201586 -0.404894,-0.318463 -0.534537,-0.534538 -0.539018,-0.898361 0.0063,-0.615188 -0.534541,-1.33635 -0.226785,-0.302379 -0.592145,-0.487312 -0.801809,-0.801806 -0.203634,-0.305451 -0.472445,-1.02589 -0.534538,-1.33635 -0.03494,-0.174717 0.05635,-0.3655 0,-0.534537 -0.03984,-0.119526 -0.197381,-0.162439 -0.267269,-0.267269 -0.110503,-0.165754 -0.178181,-0.35636 -0.267271,-0.534541 -0.08909,-0.178178 -0.204272,-0.345551 -0.267269,-0.534537 -0.02817,-0.08452 0.02817,-0.182753 0,-0.267272 -0.063,-0.188986 -0.218953,-0.341275 -0.267269,-0.534538 -0.05434,-0.217344 0,-1.323829 0,-1.603618 0,-0.623628 0,-1.247256 0,-1.870885 0,-0.178181 0,-0.356359 0,-0.53454 0,-0.08909 0.03984,-0.187584 0,-0.267269 -0.05634,-0.112691 -0.210926,-0.15458 -0.267269,-0.267269 -0.03984,-0.07968 0,-0.178181 0,-0.267271 0,-0.08909 -0.03984,-0.187584 0,-0.267269 0.05634,-0.112691 0.178179,-0.178178 0.267269,-0.267269 0.08909,-0.08909 0.154578,-0.210926 0.267269,-0.267269 0.07968,-0.03984 0.178181,0 0.267269,0 0.178181,0 0.365503,-0.05635 0.53454,0 0.119526,0.03984 0.162439,0.197382 0.267269,0.267269 0.331507,0.221004 0.737571,0.313534 1.069078,0.534538 0.104833,0.06989 0.178181,0.178181 0.267269,0.267271 0.178181,0.178179 0.356359,0.35636 0.53454,0.534538 0.267269,0.267269 0.534538,0.53454 0.80181,0.801809 0.08909,0.08909 0.197381,0.162439 0.267268,0.267269 0.110504,0.165754 0.126405,0.393676 0.267269,0.53454 0.227137,0.227135 0.544836,0.341808 0.80181,0.534538 0.3265061,0.24488 0.3399861,0.412705 0.5345371,0.801809 0.913913,1.827827 -0.5489941,-0.95713 0.801809,1.069078 0.04942,0.07413 -0.02817,0.182751 0,0.267269 0.125992,0.377976 0.408549,0.691103 0.534541,1.069078 0.02817,0.08452 -0.02817,0.182753 0,0.267269 0.125992,0.377979 0.356359,0.712719 0.534537,1.069078 0.08909,0.178181 0.218954,0.341278 0.267269,0.534541 0.04322,0.17286 -0.04321,0.36168 0,0.534537 0.02622,0.104852 0.508328,0.964229 0.534541,1.069078 0.04321,0.172861 -0.05635,0.365504 0,0.534541 0.03984,0.119525 0.197381,0.162438 0.267269,0.267269 0.110503,0.165753 0.178181,0.356359 0.267271,0.53454 0.08909,0.178178 0.218953,0.341275 0.267269,0.534538 0.04321,0.17286 -0.05635,0.365503 0,0.53454 0.03984,0.119525 0.210923,0.154577 0.267269,0.267269 0.807122,1.614244 -0.03853,0.113159 0.267269,1.336347 0.04831,0.193265 0.178181,0.356359 0.267271,0.53454 0.08909,0.178178 0.156766,0.368784 0.267269,0.534538 0.06989,0.104833 0.236712,0.145039 0.267269,0.267271 0.06482,0.259289 -0.06482,0.542518 0,0.801807 0.03056,0.122232 0.197382,0.162438 0.267269,0.267271 0.778208,1.16731 -0.118454,-0.0881 0.267271,1.069078 0.03984,0.119526 0.227425,0.147741 0.267269,0.267269 0.05635,0.169037 0,0.35636 0,0.534538 0,0.223808 -0.05081,1.133099 0,1.336349 0.04832,0.193263 0.2282,0.339196 0.267269,0.534538 0.05242,0.262081 0,0.53454 0,0.801809 0,0.08909 -0.02817,0.182751 0,0.267269 0.063,0.188989 0.218953,0.341276 0.267269,0.534541 0.04322,0.172857 0,0.356359 0,0.534537 0,0.44545 0,0.8909 0,1.336347 0,0.08909 -0.03984,0.187587 0,0.267272 0.05635,0.112691 0.227428,0.147743 0.267271,0.267268 0.08018,0.240544 -0.08018,0.561266 0,0.80181 0.063,0.188986 0.204272,0.345551 0.267269,0.534537 0.02817,0.08452 -0.02817,0.182753 0,0.267272 0.063,0.188986 0.204274,0.345548 0.267269,0.534538 0.09467,0.284003 -0.09467,0.785071 0,1.069081 0.03984,0.11952 0.197382,0.16243 0.267269,0.26726 0.110503,0.16576 0.204274,0.34556 0.267271,0.53455 0.08678,0.26033 -0.08487,1.08174 0,1.33634 0.06299,0.18899 0.204272,0.34555 0.267269,0.53454 0.08452,0.25356 -0.06482,0.54252 0,0.80181 0.04832,0.19326 0.218953,0.34128 0.267269,0.53454 0.04321,0.17286 -0.05635,0.3655 0,0.53454 0.03984,0.11953 0.210923,0.15458 0.267269,0.26727 0.03984,0.0797 -0.03984,0.18758 0,0.26727 0.112691,0.22538 0.421849,0.30916 0.53454,0.53454 0.07885,0.15769 -0.06128,0.61797 0,0.8018 0.307113,0.92134 0.267269,0.19799 0.267269,0.80182"
       id="path872"
       inkscape:connector-curvature="0" />
    <rect
       style="fill:#3c8045;fill-opacity:1;stroke:#000000;stroke-width:2.00000006;stroke-miterlimit:3.8;stroke-dasharray:2.00000006,12.00000033;stroke-opacity:1;opacity:1;stroke-dashoffset:6.60000057;stroke-linecap:square;paint-order:fill markers stroke"
       id="rect927"
       width="115.19316"
       height="6.6817379"
       x="27.79603"
       y="10.754328" />
    <rect
       style="opacity:1;fill:#3c8045;fill-opacity:1;stroke:#000000;stroke-width:2;stroke-linecap:square;stroke-miterlimit:3.79999995;stroke-dasharray:2.00000006, 6.00000017;stroke-dashoffset:0;stroke-opacity:1;paint-order:fill markers stroke"
       id="rect2397"
       width="41.694057"
       height="65.21376"
       x="253.63876"
       y="12.625212" />
    <rect
       style="opacity:1;fill:#3c8045;fill-opacity:1;stroke:none;stroke-width:1.58533108;stroke-linecap:square;stroke-miterlimit:3.79999995;stroke-dasharray:none;stroke-dashoffset:0;stroke-opacity:1;paint-order:fill markers stroke"
       id="rect2475"
       width="55"
       height="25"
       x="25"
       y="172" />
  </g>
</svg>
